<svg width="128" height="128" viewBox="0 0 128 128" fill="none" xmlns="http://www.w3.org/2000/svg">
<path d="M64 5C49.4131 5 35.4236 10.7946 25.1091 21.1091C14.7946 31.4236 9 45.4131 9 60V68C9 82.5869 14.7946 96.5764 25.1091 106.891C35.4236 117.205 49.4131 123 64 123C78.5869 123 92.5764 117.205 102.891 106.891C113.205 96.5764 119 82.5869 119 68V60C119 45.4131 113.205 31.4236 102.891 21.1091C92.5764 10.7946 78.5869 5 64 5Z" fill="url(#paint0_linear_13_28)"/>
<path d="M64 115C94.3757 115 119 90.3757 119 60C119 29.6243 94.3757 5 64 5C33.6243 5 9 29.6243 9 60C9 90.3757 33.6243 115 64 115Z" fill="url(#paint1_linear_13_28)"/>
<path d="M64 112.614C93.0581 112.614 116.614 89.0581 116.614 60C116.614 30.942 93.0581 7.38574 64 7.38574C34.942 7.38574 11.3857 30.942 11.3857 60C11.3857 89.0581 34.942 112.614 64 112.614Z" fill="url(#paint2_linear_13_28)"/>
<path d="M64 23.8105C58.7222 23.8105 53.4961 24.8499 48.62 26.8696C43.744 28.8893 39.3135 31.8496 35.5816 35.5816C31.8496 39.3135 28.8893 43.744 26.8696 48.62C24.8499 53.4961 23.8105 58.7222 23.8105 64C23.8105 69.2778 24.8499 74.5039 26.8696 79.38C28.8893 84.256 31.8496 88.6865 35.5816 92.4184C39.3135 96.1504 43.744 99.1107 48.6201 101.13C53.4961 103.15 58.7222 104.19 64 104.189C69.2778 104.19 74.5039 103.15 79.38 101.13C84.256 99.1107 88.6865 96.1504 92.4184 92.4184C96.1504 88.6865 99.1107 84.256 101.13 79.38C103.15 74.5039 104.19 69.2778 104.189 64C104.19 58.7222 103.15 53.4961 101.13 48.6201C99.1107 43.744 96.1504 39.3135 92.4184 35.5816C88.6865 31.8496 84.256 28.8893 79.38 26.8696C74.5039 24.8499 69.2778 23.8105 64 23.8105ZM53.3223 44.2422C54.7294 43.9942 56.1788 44.2501 57.416 44.9648L84.7578 60.75C85.6814 61.2833 86.4483 62.0503 86.9816 62.9739C87.5148 63.8975 87.7955 64.9452 87.7955 66.0117C87.7955 67.0782 87.5148 68.1259 86.9816 69.0495C86.4483 69.9732 85.6814 70.7402 84.7578 71.2734L57.416 87.0586C56.4924 87.5917 55.4447 87.8724 54.3783 87.8723C53.3118 87.8723 52.2642 87.5915 51.3406 87.0583C50.417 86.525 49.6501 85.7581 49.1168 84.8345C48.5836 83.911 48.3028 82.8633 48.3027 81.7969V50.2266C48.3025 48.7982 48.8055 47.4153 49.7235 46.3209C50.6414 45.2265 51.9156 44.4905 53.3223 44.2422Z" fill="#1A58A8" fill-opacity="0.972549"/>
<g clip-path="url(#clip0_13_28)">
<path d="M64.19 100.38C86.3863 100.38 104.38 82.3863 104.38 60.19C104.38 37.9937 86.3863 20 64.19 20C41.9937 20 24 37.9937 24 60.19C24 82.3863 41.9937 100.38 64.19 100.38Z" fill="white"/>
<path d="M64.19 21.3859C43.4541 21.3859 26.5206 37.6438 25.4379 58.1112C25.4465 79.9212 42.7958 97.6083 64.19 97.6083C85.5843 97.6083 102.934 79.9212 102.942 58.1112C101.859 37.6438 84.926 21.3859 64.19 21.3859Z" fill="white"/>
<path d="M64.19 98.9941C42.7351 98.9941 25.3859 81.6449 25.3859 60.19C25.3859 59.4711 25.3859 58.8041 25.4378 58.1372C26.4946 78.596 43.454 94.8366 64.19 94.8366C84.7527 94.8366 101.608 78.8125 102.942 58.5789V58.1372C102.994 58.8041 102.994 59.4711 102.994 60.19C102.994 81.6449 85.6449 98.9941 64.19 98.9941ZM64.19 25.5435C45.4376 25.5435 30.2364 40.7446 30.2364 59.4971C30.2364 69.9777 34.983 79.3409 42.4406 85.5686C39.2412 82.5901 36.6906 78.9836 34.9484 74.9745C33.2062 70.9654 32.3097 66.6401 32.3152 62.2688C32.3152 44.6684 46.5896 30.394 64.19 30.394C81.7904 30.394 96.0648 44.6684 96.0648 62.2688C96.0703 66.6401 95.1738 70.9654 93.4316 74.9745C91.6894 78.9836 89.1388 82.5901 85.9394 85.5686C93.397 79.3409 98.1436 69.9777 98.1436 59.4971C98.1436 40.7446 82.9424 25.5435 64.19 25.5435Z" fill="#F2F2F2"/>
<path d="M64.19 90.679C81.0286 90.679 94.679 77.0286 94.679 60.19C94.679 43.3514 81.0286 29.701 64.19 29.701C47.3514 29.701 33.701 43.3514 33.701 60.19C33.701 77.0286 47.3514 90.679 64.19 90.679Z" fill="#1369BF"/>
<path d="M64.19 89.2931C80.2632 89.2931 93.2931 76.2632 93.2931 60.19C93.2931 44.1168 80.2632 31.0869 64.19 31.0869C48.1168 31.0869 35.0869 44.1168 35.0869 60.19C35.0869 76.2632 48.1168 89.2931 64.19 89.2931Z" fill="#198CFF"/>
<path d="M64.19 84.4425C77.5843 84.4425 88.4425 73.5843 88.4425 60.19C88.4425 46.7956 77.5843 35.9374 64.19 35.9374C50.7956 35.9374 39.9374 46.7956 39.9374 60.19C39.9374 73.5843 50.7956 84.4425 64.19 84.4425Z" fill="#1369BF"/>
<path d="M64.19 83.0567C76.8189 83.0567 87.0567 72.8189 87.0567 60.19C87.0567 47.561 76.8189 37.3232 64.19 37.3232C51.561 37.3232 41.3232 47.561 41.3232 60.19C41.3232 72.8189 51.561 83.0567 64.19 83.0567Z" fill="#F2F2F2"/>
<path d="M64.19 71.9698C70.6958 71.9698 75.9698 66.6958 75.9698 60.19C75.9698 53.6842 70.6958 48.4102 64.19 48.4102C57.6842 48.4102 52.4102 53.6842 52.4102 60.19C52.4102 66.6958 57.6842 71.9698 64.19 71.9698Z" fill="white"/>
<path d="M64.19 70.584C69.9304 70.584 74.584 65.9304 74.584 60.19C74.584 54.4496 69.9304 49.796 64.19 49.796C58.4496 49.796 53.796 54.4496 53.796 60.19C53.796 65.9304 58.4496 70.584 64.19 70.584Z" fill="#BFBFBF"/>
<path d="M64.19 69.1981C69.165 69.1981 73.1981 65.165 73.1981 60.19C73.1981 55.2149 69.165 51.1819 64.19 51.1819C59.2149 51.1819 55.1819 55.2149 55.1819 60.19C55.1819 65.165 59.2149 69.1981 64.19 69.1981Z" fill="#E5E5E5"/>
<path d="M60.3789 78.2062C59.5526 78.204 58.7608 77.8747 58.1766 77.2904C57.5923 76.7061 57.263 75.9143 57.2607 75.088V59.4365C57.2612 58.7022 57.5186 57.9913 57.9883 57.427L58.9065 56.3443C58.957 56.2801 58.9845 56.2008 58.9845 56.1191C58.9845 56.0374 58.957 55.958 58.9065 55.8939L57.9883 54.8112C57.5186 54.2468 57.2612 53.5359 57.2607 52.8017V45.292C57.263 44.4657 57.5923 43.6739 58.1766 43.0896C58.7608 42.5054 59.5526 42.1761 60.3789 42.1738H68.0012C68.8275 42.1761 69.6193 42.5054 70.2035 43.0896C70.7878 43.6739 71.1171 44.4657 71.1194 45.292V60.9436C71.1189 61.6778 70.8615 62.3888 70.3918 62.9531L69.4737 64.0358C69.4231 64.1 69.3956 64.1793 69.3956 64.261C69.3956 64.3427 69.4231 64.422 69.4737 64.4862L70.3918 65.5689C70.8615 66.1332 71.1189 66.8442 71.1194 67.5784V75.088C71.1171 75.9143 70.7878 76.7061 70.2035 77.2904C69.6193 77.8747 68.8275 78.204 68.0012 78.2062H60.3789Z" fill="white"/>
<path d="M60.3789 43.5597H68.0012C68.4599 43.562 68.8992 43.7452 69.2236 44.0696C69.548 44.394 69.7312 44.8333 69.7335 45.292V60.9436C69.7317 61.352 69.5878 61.7471 69.3264 62.0609L68.4169 63.1437C68.1531 63.4562 68.0084 63.852 68.0084 64.261C68.0084 64.67 68.1531 65.0658 68.4169 65.3784L69.3264 66.4611C69.5878 66.7749 69.7317 67.17 69.7335 67.5784V75.0881C69.7312 75.5468 69.548 75.9861 69.2236 76.3105C68.8992 76.6349 68.4599 76.8181 68.0012 76.8204H60.3789C59.9202 76.8181 59.4809 76.6349 59.1565 76.3105C58.8321 75.9861 58.6489 75.5468 58.6466 75.0881V59.4365C58.6484 59.028 58.7924 58.633 59.0537 58.3191L59.9632 57.2364C60.227 56.9239 60.3717 56.5281 60.3717 56.1191C60.3717 55.7101 60.227 55.3143 59.9632 55.0017L59.0537 53.919C58.7924 53.6051 58.6484 53.2101 58.6466 52.8017V45.292C58.6489 44.8333 58.8321 44.394 59.1565 44.0696C59.4809 43.7452 59.9202 43.562 60.3789 43.5597Z" fill="#061A2E"/>
<path d="M60.3788 75.4345C60.2869 75.4345 60.1988 75.398 60.1338 75.333C60.0689 75.2681 60.0324 75.1799 60.0324 75.0881V59.4365C60.0301 59.3544 60.0578 59.2744 60.1103 59.2113L61.0284 58.1199C61.4978 57.5588 61.755 56.8506 61.755 56.1191C61.755 55.3875 61.4978 54.6793 61.0284 54.1182L60.1103 53.0269C60.0578 52.9638 60.0301 52.8837 60.0324 52.8017V45.292C60.0324 45.2001 60.0689 45.112 60.1338 45.047C60.1988 44.9821 60.2869 44.9456 60.3788 44.9456H68.0011C68.0929 44.9456 68.1811 44.9821 68.246 45.047C68.311 45.112 68.3475 45.2001 68.3475 45.292V60.9436C68.3498 61.0256 68.322 61.1057 68.2696 61.1688L67.3514 62.2602C66.882 62.8212 66.6248 63.5295 66.6248 64.261C66.6248 64.9925 66.882 65.7008 67.3514 66.2618L68.2696 67.3532C68.322 67.4163 68.3498 67.4964 68.3475 67.5784V75.0881C68.3475 75.1799 68.311 75.2681 68.246 75.333C68.1811 75.398 68.0929 75.4345 68.0011 75.4345H60.3788Z" fill="#0A2B4C"/>
</g>
<defs>
<linearGradient id="paint0_linear_13_28" x1="9" y1="64" x2="119" y2="64" gradientUnits="userSpaceOnUse">
<stop stop-color="#1A59A7" stop-opacity="0.972549"/>
<stop offset="0.301459" stop-color="#1A59A7" stop-opacity="0.972549"/>
<stop offset="0.502431" stop-color="#3B87E2" stop-opacity="0.964706"/>
<stop offset="0.751216" stop-color="#1A59A7" stop-opacity="0.972549"/>
<stop offset="1" stop-color="#1A59A7" stop-opacity="0.972549"/>
</linearGradient>
<linearGradient id="paint1_linear_13_28" x1="25.3464" y1="22.6743" x2="101.579" y2="98.9073" gradientUnits="userSpaceOnUse">
<stop stop-color="#68A8F5"/>
<stop offset="1" stop-color="#70D2F4"/>
</linearGradient>
<linearGradient id="paint2_linear_13_28" x1="27.0231" y1="24.2934" x2="99.9493" y2="97.2197" gradientUnits="userSpaceOnUse">
<stop stop-color="#4B8BCB"/>
<stop offset="1" stop-color="#198CFF"/>
</linearGradient>
<clipPath id="clip0_13_28">
<rect width="80.38" height="80.38" fill="white" transform="translate(24 20)"/>
</clipPath>
</defs>
</svg>
