<svg width="128" height="128" viewBox="0 0 128 128" fill="none" xmlns="http://www.w3.org/2000/svg">
<path d="M103.5 15.5H24.5C17.3203 15.5 11.5 21.3203 11.5 28.5V107.5C11.5 114.68 17.3203 120.5 24.5 120.5H103.5C110.68 120.5 116.5 114.68 116.5 107.5V28.5C116.5 21.3203 110.68 15.5 103.5 15.5Z" fill="url(#paint0_linear_10_113)"/>
<path d="M103.5 7.5H24.5C17.3203 7.5 11.5 13.3203 11.5 20.5V99.5C11.5 106.68 17.3203 112.5 24.5 112.5H103.5C110.68 112.5 116.5 106.68 116.5 99.5V20.5C116.5 13.3203 110.68 7.5 103.5 7.5Z" fill="url(#paint1_linear_10_113)"/>
<path d="M102.378 9.62231H25.6223C18.9949 9.62231 13.6223 14.9949 13.6223 21.6223V98.3776C13.6223 105.005 18.9949 110.378 25.6223 110.378H102.378C109.005 110.378 114.378 105.005 114.378 98.3776V21.6223C114.378 14.9949 109.005 9.62231 102.378 9.62231Z" fill="#E6E6E6"/>
<g filter="url(#filter0_d_10_113)">
<path d="M78.9183 55.5H97.7744C99.5559 55.5 101 56.9461 101 58.73V75.9289C101 82.4851 95.6924 87.8 89.1451 87.8H89.0891C82.5418 87.8009 77.2335 82.4868 77.2325 75.9306C77.2325 75.93 77.2325 75.9295 77.2325 75.9289V57.1881C77.2326 56.2558 77.9873 55.5 78.9183 55.5Z" fill="#5059C9"/>
</g>
<g filter="url(#filter1_d_10_113)">
<path d="M91.6628 52.1C95.882 52.1 99.3023 48.675 99.3023 44.45C99.3023 40.225 95.882 36.8 91.6628 36.8C87.4436 36.8 84.0233 40.225 84.0233 44.45C84.0233 48.675 87.4436 52.1 91.6628 52.1Z" fill="#5059C9"/>
</g>
<g filter="url(#filter2_d_10_113)">
<path d="M67.8954 52.1C73.9898 52.1 78.9303 47.1528 78.9303 41.05C78.9303 34.9473 73.9898 30 67.8954 30C61.801 30 56.8605 34.9473 56.8605 41.05C56.8605 47.1528 61.801 52.1 67.8954 52.1Z" fill="#7B83EB"/>
</g>
<g filter="url(#filter3_d_10_113)">
<path d="M82.6091 55.5H51.4839C49.7237 55.5436 48.3313 57.0064 48.3721 58.7691V78.3854C48.1263 88.9632 56.4835 97.7412 67.0465 98C77.6096 97.7412 85.9667 88.9632 85.721 78.3854V58.7691C85.7617 57.0064 84.3693 55.5436 82.6091 55.5Z" fill="#7B83EB"/>
</g>
<path opacity="0.1" d="M68.7442 55.5V82.989C68.7358 84.2496 67.9729 85.382 66.8089 85.862C66.4382 86.019 66.0399 86.0999 65.6375 86.1H49.8661C49.6454 85.539 49.4417 84.978 49.2719 84.4C48.6776 82.4493 48.3744 80.4215 48.3721 78.382V58.764C48.3313 57.0041 49.7214 55.5436 51.4788 55.5H68.7442Z" fill="black"/>
<path opacity="0.2" d="M67.0466 55.5V84.689C67.0465 85.092 66.9657 85.4909 66.8089 85.862C66.3296 87.0276 65.1987 87.7916 63.9398 87.8H50.664C50.3754 87.239 50.1038 86.678 49.8661 86.1C49.6284 85.522 49.4417 84.978 49.2719 84.4C48.6776 82.4494 48.3744 80.4215 48.3721 78.382V58.764C48.3313 57.0041 49.7214 55.5436 51.4788 55.5H67.0466Z" fill="black"/>
<path opacity="0.2" d="M67.0465 55.5V81.289C67.0336 83.0018 65.6502 84.3871 63.9398 84.4H49.2719C48.6776 82.4494 48.3744 80.4215 48.3721 78.382V58.764C48.3313 57.0041 49.7214 55.5436 51.4788 55.5H67.0465Z" fill="black"/>
<path opacity="0.2" d="M65.3488 55.5V81.289C65.3359 83.0018 63.9525 84.3871 62.2421 84.4H49.2719C48.6776 82.4494 48.3744 80.4215 48.3721 78.382V58.764C48.3313 57.0041 49.7214 55.5436 51.4788 55.5H65.3488Z" fill="black"/>
<path opacity="0.1" d="M68.7442 46.7111V52.0661C68.4556 52.0831 68.1839 52.1001 67.8953 52.1001C67.6067 52.1001 67.3351 52.0831 67.0465 52.0661C66.4734 52.028 65.9051 51.9369 65.3488 51.7941C61.911 50.9788 59.0708 48.5645 57.7093 45.3001C57.475 44.7519 57.2931 44.1826 57.166 43.6001H65.6374C67.3505 43.6066 68.7377 44.9956 68.7442 46.7111Z" fill="black"/>
<path opacity="0.2" d="M67.0466 48.411V52.066C66.4735 52.0279 65.9052 51.9369 65.3489 51.794C61.9111 50.9788 59.0709 48.5645 57.7094 45.3H63.9398C65.6529 45.3065 67.04 46.6956 67.0466 48.411Z" fill="black"/>
<path opacity="0.2" d="M67.0466 48.411V52.066C66.4735 52.0279 65.9052 51.9369 65.3489 51.794C61.9111 50.9788 59.0709 48.5645 57.7094 45.3H63.9398C65.6529 45.3065 67.04 46.6956 67.0466 48.411Z" fill="black"/>
<path opacity="0.2" d="M65.3488 48.411V51.794C61.911 50.9788 59.0708 48.5645 57.7093 45.3H62.2421C63.9552 45.3066 65.3423 46.6956 65.3488 48.411Z" fill="black"/>
<path d="M31.1118 45.3H62.237C63.9556 45.3 65.3488 46.6952 65.3488 48.4161V79.5839C65.3488 81.3049 63.9556 82.7 62.237 82.7H31.1118C29.3932 82.7 28 81.3049 28 79.5839V48.4161C28 46.6952 29.3932 45.3 31.1118 45.3Z" fill="url(#paint2_linear_10_113)"/>
<path d="M54.864 57.1626H48.642V74.1287H44.678V57.1626H38.4849V53.8715H54.864V57.1626Z" fill="white"/>
<defs>
<filter id="filter0_d_10_113" x="77.2325" y="55.5" width="24.2675" height="33.8" filterUnits="userSpaceOnUse" color-interpolation-filters="sRGB">
<feFlood flood-opacity="0" result="BackgroundImageFix"/>
<feColorMatrix in="SourceAlpha" type="matrix" values="0 0 0 0 0 0 0 0 0 0 0 0 0 0 0 0 0 0 127 0" result="hardAlpha"/>
<feOffset dx="0.5" dy="1.5"/>
<feComposite in2="hardAlpha" operator="out"/>
<feColorMatrix type="matrix" values="0 0 0 0 0.482353 0 0 0 0 0.513726 0 0 0 0 0.921569 0 0 0 0.11 0"/>
<feBlend mode="normal" in2="BackgroundImageFix" result="effect1_dropShadow_10_113"/>
<feBlend mode="normal" in="SourceGraphic" in2="effect1_dropShadow_10_113" result="shape"/>
</filter>
<filter id="filter1_d_10_113" x="84.0233" y="36.8" width="15.7791" height="16.8" filterUnits="userSpaceOnUse" color-interpolation-filters="sRGB">
<feFlood flood-opacity="0" result="BackgroundImageFix"/>
<feColorMatrix in="SourceAlpha" type="matrix" values="0 0 0 0 0 0 0 0 0 0 0 0 0 0 0 0 0 0 127 0" result="hardAlpha"/>
<feOffset dx="0.5" dy="1.5"/>
<feComposite in2="hardAlpha" operator="out"/>
<feColorMatrix type="matrix" values="0 0 0 0 0.482353 0 0 0 0 0.513726 0 0 0 0 0.921569 0 0 0 0.11 0"/>
<feBlend mode="normal" in2="BackgroundImageFix" result="effect1_dropShadow_10_113"/>
<feBlend mode="normal" in="SourceGraphic" in2="effect1_dropShadow_10_113" result="shape"/>
</filter>
<filter id="filter2_d_10_113" x="56.8605" y="30" width="22.5698" height="23.6" filterUnits="userSpaceOnUse" color-interpolation-filters="sRGB">
<feFlood flood-opacity="0" result="BackgroundImageFix"/>
<feColorMatrix in="SourceAlpha" type="matrix" values="0 0 0 0 0 0 0 0 0 0 0 0 0 0 0 0 0 0 127 0" result="hardAlpha"/>
<feOffset dx="0.5" dy="1.5"/>
<feComposite in2="hardAlpha" operator="out"/>
<feColorMatrix type="matrix" values="0 0 0 0 0.482353 0 0 0 0 0.513726 0 0 0 0 0.921569 0 0 0 0.11 0"/>
<feBlend mode="normal" in2="BackgroundImageFix" result="effect1_dropShadow_10_113"/>
<feBlend mode="normal" in="SourceGraphic" in2="effect1_dropShadow_10_113" result="shape"/>
</filter>
<filter id="filter3_d_10_113" x="48.3668" y="55.5" width="37.8594" height="44" filterUnits="userSpaceOnUse" color-interpolation-filters="sRGB">
<feFlood flood-opacity="0" result="BackgroundImageFix"/>
<feColorMatrix in="SourceAlpha" type="matrix" values="0 0 0 0 0 0 0 0 0 0 0 0 0 0 0 0 0 0 127 0" result="hardAlpha"/>
<feOffset dx="0.5" dy="1.5"/>
<feComposite in2="hardAlpha" operator="out"/>
<feColorMatrix type="matrix" values="0 0 0 0 0.482353 0 0 0 0 0.513726 0 0 0 0 0.921569 0 0 0 0.11 0"/>
<feBlend mode="normal" in2="BackgroundImageFix" result="effect1_dropShadow_10_113"/>
<feBlend mode="normal" in="SourceGraphic" in2="effect1_dropShadow_10_113" result="shape"/>
</filter>
<linearGradient id="paint0_linear_10_113" x1="11.5" y1="120.5" x2="116.5" y2="120.5" gradientUnits="userSpaceOnUse">
<stop stop-color="#999999"/>
<stop offset="0.05" stop-color="#B3B3B3"/>
<stop offset="0.1" stop-color="#999999"/>
<stop offset="0.9" stop-color="#999999"/>
<stop offset="0.95" stop-color="#B3B3B3"/>
<stop offset="1" stop-color="#999999"/>
</linearGradient>
<linearGradient id="paint1_linear_10_113" x1="64" y1="112.5" x2="64" y2="7.5" gradientUnits="userSpaceOnUse">
<stop stop-color="#E6E6E6"/>
<stop offset="1" stop-color="white"/>
</linearGradient>
<linearGradient id="paint2_linear_10_113" x1="34.4883" y1="42.8652" x2="58.9107" y2="85.106" gradientUnits="userSpaceOnUse">
<stop stop-color="#5A62C3"/>
<stop offset="0.5" stop-color="#4D55BD"/>
<stop offset="1" stop-color="#3940AB"/>
</linearGradient>
</defs>
</svg>
