<?xml version="1.0" encoding="UTF-8" standalone="no"?>
<!-- Created with Inkscape (http://www.inkscape.org/) -->

<svg
   width="128"
   height="128"
   viewBox="0 0 128 128"
   version="1.1"
   id="svg5"
   inkscape:version="1.4.2 (ebf0e940d0, 2025-05-08)"
   sodipodi:docname="timeshift.svg"
   inkscape:export-filename="/home/retro/.icons/skeuowaita/scalable/apps/skeuowaita.png"
   inkscape:export-xdpi="1536"
   inkscape:export-ydpi="1536"
   xml:space="preserve"
   xmlns:inkscape="http://www.inkscape.org/namespaces/inkscape"
   xmlns:sodipodi="http://sodipodi.sourceforge.net/DTD/sodipodi-0.dtd"
   xmlns:xlink="http://www.w3.org/1999/xlink"
   xmlns="http://www.w3.org/2000/svg"
   xmlns:svg="http://www.w3.org/2000/svg"><sodipodi:namedview
     id="namedview7"
     pagecolor="#ffffff"
     bordercolor="#666666"
     borderopacity="1"
     inkscape:pageshadow="2"
     inkscape:pageopacity="0.0"
     inkscape:pagecheckerboard="true"
     inkscape:document-units="px"
     showgrid="false"
     inkscape:showpageshadow="false"
     showborder="true"
     inkscape:snap-page="true"
     inkscape:zoom="1.1808786"
     inkscape:cx="-13.12582"
     inkscape:cy="190.11268"
     inkscape:window-width="1648"
     inkscape:window-height="993"
     inkscape:window-x="0"
     inkscape:window-y="0"
     inkscape:window-maximized="1"
     inkscape:current-layer="layer2"
     inkscape:snap-bbox="true"
     inkscape:snap-bbox-midpoints="true"
     inkscape:snap-bbox-edge-midpoints="true"
     inkscape:bbox-nodes="true"
     inkscape:bbox-paths="true"
     inkscape:snap-intersection-paths="true"
     inkscape:object-paths="true"
     inkscape:snap-smooth-nodes="true"
     inkscape:snap-midpoints="true"
     inkscape:deskcolor="#d1d1d1" /><defs
     id="defs2"><linearGradient
       inkscape:collect="always"
       id="linearGradient4539"><stop
         style="stop-color:#e26e6e;stop-opacity:1;"
         offset="0"
         id="stop4535" /><stop
         style="stop-color:#ff8080;stop-opacity:1"
         offset="0.5"
         id="stop4543" /><stop
         style="stop-color:#fae5e5;stop-opacity:1;"
         offset="1"
         id="stop4537" /></linearGradient><linearGradient
       inkscape:collect="always"
       id="linearGradient5042"><stop
         style="stop-color:#7b032d;stop-opacity:1;"
         offset="0"
         id="stop5038" /><stop
         style="stop-color:#a01227;stop-opacity:1;"
         offset="0.29999998"
         id="stop12907" /><stop
         style="stop-color:#ca0942;stop-opacity:1;"
         offset="0.49999997"
         id="stop7880" /><stop
         style="stop-color:#a01227;stop-opacity:1"
         offset="0.69999999"
         id="stop12905" /><stop
         style="stop-color:#80052c;stop-opacity:1"
         offset="1"
         id="stop5040" /></linearGradient><linearGradient
       y2="236"
       x2="96"
       y1="236"
       x1="32"
       gradientTransform="translate(604.81684,170.58641)"
       gradientUnits="userSpaceOnUse"
       id="linearGradient1099"
       xlink:href="#linearGradient1036" /><linearGradient
       id="linearGradient1036"><stop
         id="stop1032"
         offset="0"
         style="stop-color:#d5d3cf;stop-opacity:1;" /><stop
         id="stop1034"
         offset="1"
         style="stop-color:#f6f5f4;stop-opacity:1" /></linearGradient><radialGradient
       r="32"
       fy="-76"
       fx="-244"
       cy="-76"
       cx="-244"
       gradientTransform="matrix(0.88333331,0,0,0.88333331,-460.35018,463.11973)"
       gradientUnits="userSpaceOnUse"
       id="radialGradient1103"
       xlink:href="#linearGradient1069" /><linearGradient
       id="linearGradient1069"><stop
         id="stop1065"
         offset="0"
         style="stop-color:#d5d3cf;stop-opacity:1" /><stop
         id="stop1067-1"
         offset="1"
         style="stop-color:#949390;stop-opacity:1" /></linearGradient><linearGradient
       gradientUnits="userSpaceOnUse"
       y2="232"
       x2="64"
       y1="262.5"
       x1="64"
       id="linearGradient1027"
       xlink:href="#linearGradient1025"
       gradientTransform="translate(-470.5864,432.81685)" /><linearGradient
       id="linearGradient1025"><stop
         id="stop1021"
         offset="0"
         style="stop-color:#9a9996;stop-opacity:1" /><stop
         id="stop1023"
         offset="1"
         style="stop-color:#77767b;stop-opacity:1" /></linearGradient><inkscape:path-effect
       effect="spiro"
       id="path-effect35304-9"
       is_visible="true" /><clipPath
       clipPathUnits="userSpaceOnUse"
       id="clipPath1609-7"><path
         sodipodi:nodetypes="cccccc"
         inkscape:connector-curvature="0"
         id="path1611-5"
         d="m 252,116 28,-28 v -8 h -36 v 36 z"
         style="fill:#e74747;stroke:none;stroke-width:0.25px;stroke-linecap:butt;stroke-linejoin:miter;stroke-opacity:1" /></clipPath><radialGradient
       r="32"
       fy="-76"
       fx="-244"
       cy="-76"
       cx="-244"
       gradientTransform="matrix(0.88333331,0,0,0.88333331,-460.35018,463.11973)"
       gradientUnits="userSpaceOnUse"
       id="radialGradient1103-5"
       xlink:href="#linearGradient1069" /><inkscape:path-effect
       effect="spiro"
       id="path-effect35304-9-2"
       is_visible="true" /><clipPath
       clipPathUnits="userSpaceOnUse"
       id="clipPath1609-7-7"><path
         sodipodi:nodetypes="cccccc"
         inkscape:connector-curvature="0"
         id="path1611-5-0"
         d="m 252,116 28,-28 v -8 h -36 v 36 z"
         style="fill:#e74747;stroke:none;stroke-width:0.25px;stroke-linecap:butt;stroke-linejoin:miter;stroke-opacity:1" /></clipPath><clipPath
       clipPathUnits="userSpaceOnUse"
       id="clipPath744"><rect
         style="fill:#1e88e5;fill-opacity:1;stroke-width:0.264583"
         id="rect746"
         width="541.86664"
         height="541.86664"
         x="0"
         y="1.5987212e-14"
         rx="79.375"
         ry="79.375" /></clipPath><clipPath
       clipPathUnits="userSpaceOnUse"
       id="clipPath62"><rect
         style="fill:#1e88e5;fill-opacity:1;stroke-width:0.264583"
         id="rect64"
         width="541.86664"
         height="541.86664"
         x="2.2507105e-05"
         y="-0.42205024"
         rx="79.375"
         ry="79.375" /></clipPath><radialGradient
       r="32"
       fy="-76"
       fx="-244"
       cy="-76"
       cx="-244"
       gradientTransform="matrix(0.88333331,0,0,0.88333331,-460.35018,463.11973)"
       gradientUnits="userSpaceOnUse"
       id="radialGradient1103-6"
       xlink:href="#linearGradient1069" /><inkscape:path-effect
       effect="spiro"
       id="path-effect35304-9-20"
       is_visible="true" /><clipPath
       clipPathUnits="userSpaceOnUse"
       id="clipPath1609-7-2"><path
         sodipodi:nodetypes="cccccc"
         inkscape:connector-curvature="0"
         id="path1611-5-3"
         d="m 252,116 28,-28 v -8 h -36 v 36 z"
         style="fill:#e74747;stroke:none;stroke-width:0.25px;stroke-linecap:butt;stroke-linejoin:miter;stroke-opacity:1" /></clipPath><clipPath
       clipPathUnits="userSpaceOnUse"
       id="clipPath961"><rect
         style="fill:#00c853;stroke:none;stroke-width:0.529037"
         id="rect963"
         width="541.86664"
         height="541.86664"
         x="1.4210855e-14"
         y="2.717972e-05"
         rx="79.375"
         ry="79.375" /></clipPath><radialGradient
       r="32"
       fy="-76"
       fx="-244"
       cy="-76"
       cx="-244"
       gradientTransform="matrix(0.88333331,0,0,0.88333331,-460.35018,463.11973)"
       gradientUnits="userSpaceOnUse"
       id="radialGradient1103-56"
       xlink:href="#linearGradient1069" /><inkscape:path-effect
       effect="spiro"
       id="path-effect35304-9-7"
       is_visible="true" /><clipPath
       clipPathUnits="userSpaceOnUse"
       id="clipPath1440"><circle
         style="display:inline;opacity:1;vector-effect:none;fill:none;fill-opacity:1;stroke:#000000;stroke-width:2;stroke-linecap:butt;stroke-linejoin:miter;stroke-miterlimit:4;stroke-dasharray:none;stroke-dashoffset:0;stroke-opacity:1;marker:none;marker-start:none;marker-mid:none;marker-end:none;paint-order:normal;enable-background:new"
         id="circle1442"
         cx="-134.35028"
         cy="193.74727"
         r="24"
         transform="rotate(-45)" /></clipPath><clipPath
       clipPathUnits="userSpaceOnUse"
       id="clipPath1430"><circle
         style="display:inline;opacity:1;vector-effect:none;fill:none;fill-opacity:1;stroke:#000000;stroke-width:2;stroke-linecap:butt;stroke-linejoin:miter;stroke-miterlimit:4;stroke-dasharray:none;stroke-dashoffset:0;stroke-opacity:1;marker:none;marker-start:none;marker-mid:none;marker-end:none;paint-order:normal;enable-background:new"
         id="circle1432"
         cx="12"
         cy="232"
         r="24" /></clipPath><clipPath
       clipPathUnits="userSpaceOnUse"
       id="clipPath1440-9"><circle
         style="display:inline;opacity:1;vector-effect:none;fill:none;fill-opacity:1;stroke:#000000;stroke-width:2;stroke-linecap:butt;stroke-linejoin:miter;stroke-miterlimit:4;stroke-dasharray:none;stroke-dashoffset:0;stroke-opacity:1;marker:none;marker-start:none;marker-mid:none;marker-end:none;paint-order:normal;enable-background:new"
         id="circle1442-5"
         cx="-134.35028"
         cy="193.74727"
         r="24"
         transform="rotate(-45)" /></clipPath><clipPath
       clipPathUnits="userSpaceOnUse"
       id="clipPath1430-1"><circle
         style="display:inline;opacity:1;vector-effect:none;fill:none;fill-opacity:1;stroke:#000000;stroke-width:2;stroke-linecap:butt;stroke-linejoin:miter;stroke-miterlimit:4;stroke-dasharray:none;stroke-dashoffset:0;stroke-opacity:1;marker:none;marker-start:none;marker-mid:none;marker-end:none;paint-order:normal;enable-background:new"
         id="circle1432-8"
         cx="12"
         cy="232"
         r="24" /></clipPath><clipPath
       clipPathUnits="userSpaceOnUse"
       id="clipPath2024"><rect
         style="opacity:1;vector-effect:none;fill:#63452c;fill-opacity:1;stroke:none;stroke-width:4;stroke-linecap:round;stroke-linejoin:round;stroke-miterlimit:4;stroke-dasharray:none;stroke-dashoffset:0;stroke-opacity:1"
         id="rect2026"
         width="74"
         height="98"
         x="6"
         y="196" /></clipPath><linearGradient
       id="linearGradient914"
       inkscape:collect="always"><stop
         id="stop910"
         offset="0"
         style="stop-color:#f6f5f4;stop-opacity:0.43700787" /><stop
         id="stop912"
         offset="1"
         style="stop-color:#deddda;stop-opacity:0;" /></linearGradient><radialGradient
       gradientTransform="matrix(2.6086955,0,0,1.8410361,-102.95652,-748.94671)"
       gradientUnits="userSpaceOnUse"
       r="46"
       fy="296"
       fx="64.000008"
       cy="296"
       cx="64.000008"
       id="radialGradient916"
       xlink:href="#linearGradient914"
       inkscape:collect="always" /><clipPath
       clipPathUnits="userSpaceOnUse"
       id="clipPath11543"><rect
         style="fill:#f0c04e;fill-opacity:1;stroke:none;stroke-width:0.529037"
         id="rect11545"
         width="541.86664"
         height="541.86664"
         x="1.4746095e-06"
         y="6.4330168e-05"
         rx="79.375"
         ry="79.375" /></clipPath><style
       id="style374">.cls-1{fill:url(#linear-gradient);}.cls-2{opacity:0.35;fill:url(#radial-gradient);}.cls-2,.cls-4{isolation:isolate;}.cls-3{fill:url(#linear-gradient-2);}.cls-4{opacity:0.41;fill:url(#radial-gradient-2);}.cls-5{fill:url(#radial-gradient-3);}.cls-6{fill:url(#radial-gradient-4);}</style><linearGradient
       id="linear-gradient"
       x1="63.33"
       y1="84.03"
       x2="241.67"
       y2="84.03"
       gradientTransform="matrix(1,0,0,-1,0,266)"
       gradientUnits="userSpaceOnUse"><stop
         offset="0"
         stop-color="#0c59a4"
         id="stop376" /><stop
         offset="1"
         stop-color="#114a8b"
         id="stop378" /></linearGradient><radialGradient
       id="radial-gradient"
       cx="161.83"
       cy="68.91"
       r="95.38"
       gradientTransform="matrix(1,0,0,-0.95,0,248.84)"
       gradientUnits="userSpaceOnUse"><stop
         offset="0.72"
         stop-opacity="0"
         id="stop381" /><stop
         offset="0.95"
         stop-opacity="0.53"
         id="stop383" /><stop
         offset="1"
         id="stop385" /></radialGradient><linearGradient
       id="linear-gradient-2"
       x1="157.35"
       y1="161.39"
       x2="45.96"
       y2="40.06"
       gradientTransform="matrix(1,0,0,-1,0,266)"
       gradientUnits="userSpaceOnUse"><stop
         offset="0"
         stop-color="#1b9de2"
         id="stop388" /><stop
         offset="0.16"
         stop-color="#1595df"
         id="stop390" /><stop
         offset="0.67"
         stop-color="#0680d7"
         id="stop392" /><stop
         offset="1"
         stop-color="#0078d4"
         id="stop394" /></linearGradient><radialGradient
       id="radial-gradient-2"
       cx="-340.29"
       cy="62.99"
       r="143.24"
       gradientTransform="matrix(0.15,-0.99,-0.8,-0.12,176.64,-125.4)"
       gradientUnits="userSpaceOnUse"><stop
         offset="0.76"
         stop-opacity="0"
         id="stop397" /><stop
         offset="0.95"
         stop-opacity="0.5"
         id="stop399" /><stop
         offset="1"
         id="stop401" /></radialGradient><radialGradient
       id="radial-gradient-3"
       cx="113.37"
       cy="570.21"
       r="202.43"
       gradientTransform="matrix(-0.04,1,2.13,0.08,-1179.54,-106.69)"
       gradientUnits="userSpaceOnUse"><stop
         offset="0"
         stop-color="#35c1f1"
         id="stop404" /><stop
         offset="0.11"
         stop-color="#34c1ed"
         id="stop406" /><stop
         offset="0.23"
         stop-color="#2fc2df"
         id="stop408" /><stop
         offset="0.31"
         stop-color="#2bc3d2"
         id="stop410" /><stop
         offset="0.67"
         stop-color="#36c752"
         id="stop412" /></radialGradient><radialGradient
       id="radial-gradient-4"
       cx="376.52"
       cy="567.97"
       r="97.34"
       gradientTransform="matrix(0.28,0.96,0.78,-0.23,-303.76,-148.5)"
       gradientUnits="userSpaceOnUse"><stop
         offset="0"
         stop-color="#66eb6e"
         id="stop415" /><stop
         offset="1"
         stop-color="#66eb6e"
         stop-opacity="0"
         id="stop417" /></radialGradient><clipPath
       clipPathUnits="userSpaceOnUse"
       id="clipPath1260"><rect
         style="fill:#bbdefb;fill-opacity:1;stroke:none;stroke-width:0.529037"
         id="rect1262"
         width="541.86664"
         height="541.86664"
         x="2.9492187e-06"
         y="3.9968629e-05"
         rx="79.375"
         ry="79.375" /></clipPath><clipPath
       clipPathUnits="userSpaceOnUse"
       id="clipPath16285"><rect
         style="fill:#bbdefb;fill-opacity:1;stroke:none;stroke-width:0.529037"
         id="rect16287"
         width="541.86664"
         height="541.86664"
         x="0"
         y="6.4807005e-05"
         rx="79.375"
         ry="79.375" /></clipPath><clipPath
       clipPathUnits="userSpaceOnUse"
       id="clipPath990"><rect
         style="fill:#bbdefb;fill-opacity:1;stroke:none;stroke-width:0.529037"
         id="rect992"
         width="487.67996"
         height="487.67996"
         x="27.093349"
         y="27.093338"
         rx="71.4375"
         ry="71.4375" /></clipPath><linearGradient
       id="linearGradient4292"><stop
         id="stop4294"
         offset="0"
         style="stop-color:#411f5d;stop-opacity:1" /><stop
         id="stop4296"
         offset="1"
         style="stop-color:#5b2a85;stop-opacity:1" /></linearGradient><linearGradient
       id="linearGradient4284"><stop
         offset="0"
         style="stop-color:#8381c5;stop-opacity:1"
         id="stop4286" /><stop
         id="stop4290"
         style="stop-color:#7e55b3;stop-opacity:0.99607843"
         offset="0.56639391" /><stop
         offset="1"
         style="stop-color:#a52ecb;stop-opacity:0.99215686"
         id="stop4288" /></linearGradient><linearGradient
       id="linearGradient4898"><stop
         id="stop4278"
         style="stop-color:#bab8db;stop-opacity:1"
         offset="0" /><stop
         id="stop4280"
         style="stop-color:#5955a9;stop-opacity:0.99159664"
         offset="1" /></linearGradient><linearGradient
       id="linearGradient3294"><stop
         offset="0"
         style="stop-color:#6376e6;stop-opacity:1"
         id="stop3296" /><stop
         offset="0.50094414"
         style="stop-color:#222989;stop-opacity:1"
         id="stop3302" /><stop
         offset="1"
         style="stop-color:#00003d;stop-opacity:1"
         id="stop3298" /></linearGradient><linearGradient
       id="linearGradient3284"><stop
         offset="0"
         style="stop-color:#000000;stop-opacity:1"
         id="stop3286" /><stop
         offset="0.84845906"
         style="stop-color:#000000;stop-opacity:0.49803922"
         id="stop3292" /><stop
         offset="1"
         style="stop-color:#000000;stop-opacity:0"
         id="stop3288" /></linearGradient><linearGradient
       id="linearGradient3274"><stop
         offset="0"
         style="stop-color:#000000;stop-opacity:1"
         id="stop3276" /><stop
         offset="1"
         style="stop-color:#000000;stop-opacity:0"
         id="stop3278" /></linearGradient><linearGradient
       id="linearGradient3242"><stop
         offset="0"
         style="stop-color:#282828;stop-opacity:1"
         id="stop3244" /><stop
         offset="0.39253417"
         style="stop-color:#808080;stop-opacity:1"
         id="stop3252" /><stop
         offset="1"
         style="stop-color:#d9d9d9;stop-opacity:1"
         id="stop3246" /></linearGradient><linearGradient
       id="linearGradient3202"><stop
         offset="0"
         style="stop-color:#2b2b2b;stop-opacity:1"
         id="stop3204" /><stop
         offset="0.5"
         style="stop-color:#828383;stop-opacity:1"
         id="stop3250" /><stop
         offset="1"
         style="stop-color:#dadbdb;stop-opacity:1"
         id="stop3206" /></linearGradient><linearGradient
       id="linearGradient4966"><stop
         offset="0"
         style="stop-color:#b6b3d8;stop-opacity:1"
         id="stop4968" /><stop
         offset="1"
         style="stop-color:#b6b3d8;stop-opacity:0"
         id="stop4970" /></linearGradient><linearGradient
       id="linearGradient4876"><stop
         offset="0"
         style="stop-color:#d3d2e8;stop-opacity:1"
         id="stop4878" /><stop
         offset="1"
         style="stop-color:#5955a9;stop-opacity:0.99159664"
         id="stop4880" /></linearGradient><radialGradient
       gradientTransform="matrix(0.6817439,0,0,0.5905355,-3.8523706,-28.935273)"
       gradientUnits="userSpaceOnUse"
       xlink:href="#linearGradient4898"
       id="radialGradient4892"
       fy="-108.96888"
       fx="20.951529"
       r="266.76535"
       cy="-108.96888"
       cx="20.951529" /><radialGradient
       gradientTransform="matrix(1,0,0,0.1854103,0,383.88493)"
       gradientUnits="userSpaceOnUse"
       xlink:href="#linearGradient3274"
       id="radialGradient4944"
       fy="471.26172"
       fx="233.8876"
       r="170.49393"
       cy="471.26172"
       cx="233.8876" /><radialGradient
       gradientTransform="matrix(1,0,0,0.9121621,0,32.654948)"
       gradientUnits="userSpaceOnUse"
       xlink:href="#linearGradient4966"
       id="radialGradient4972"
       fy="371.76376"
       fx="299.70135"
       r="76.696358"
       cy="371.76376"
       cx="299.70135" /><radialGradient
       gradientTransform="matrix(0.414705,0.3300575,-0.5059004,0.6356454,346.95314,49.479585)"
       gradientUnits="userSpaceOnUse"
       xlink:href="#linearGradient3202"
       id="radialGradient3210"
       fy="390.45248"
       fx="289.44067"
       r="17.67668"
       cy="390.45248"
       cx="289.44067" /><radialGradient
       gradientTransform="matrix(0.414705,0.3300575,-0.5059004,0.6356454,448.41009,-65.398074)"
       gradientUnits="userSpaceOnUse"
       xlink:href="#linearGradient3202"
       id="radialGradient3238"
       fy="382.14804"
       fx="283.50717"
       r="17.67668"
       cy="382.14804"
       cx="283.50717" /><radialGradient
       gradientTransform="matrix(-6.5565014e-2,-5.9721765e-2,1.6871024,-1.8521705,171.90774,540.51473)"
       gradientUnits="userSpaceOnUse"
       xlink:href="#linearGradient3242"
       id="radialGradient3248"
       fy="181.18982"
       fx="418.45551"
       r="63.068935"
       cy="181.18982"
       cx="418.45551" /><radialGradient
       gradientTransform="matrix(0.4055116,-3.3440123e-2,0.1034174,4.3988695,177.23251,-1191.6649)"
       gradientUnits="userSpaceOnUse"
       xlink:href="#linearGradient3274"
       id="radialGradient3268"
       fy="357.33591"
       fx="354.51709"
       r="33.712105"
       cy="357.33591"
       cx="354.51709" /><radialGradient
       gradientTransform="matrix(-0.1339874,-0.1146812,0.3079048,-0.3597394,444.23592,395.03849)"
       gradientUnits="userSpaceOnUse"
       xlink:href="#linearGradient3274"
       id="radialGradient3280"
       fy="223.55537"
       fx="510.58469"
       r="132.28336"
       cy="223.55537"
       cx="510.58469" /><radialGradient
       gradientTransform="matrix(-1.2497569,1.3798305,-9.6289463e-2,-7.2974479e-2,674.3826,-70.590682)"
       gradientUnits="userSpaceOnUse"
       xlink:href="#linearGradient3284"
       id="radialGradient3290"
       fy="-158.17821"
       fx="284.4671"
       r="110.2972"
       cy="-158.17821"
       cx="284.4671" /><radialGradient
       gradientTransform="matrix(-0.1008165,-8.0872321e-2,1.0745309,-1.3395252,13.843287,784.79288)"
       gradientUnits="userSpaceOnUse"
       xlink:href="#linearGradient3294"
       id="radialGradient3300"
       fy="356.62274"
       fx="425.51019"
       r="143.34167"
       cy="356.62274"
       cx="425.51019" /><filter
       height="1.1062305"
       y="-0.053115233"
       width="1.1073157"
       x="-0.053657864"
       id="filter4350"
       style="color-interpolation-filters:sRGB"><feGaussianBlur
         id="feGaussianBlur4352"
         stdDeviation="8.7848425" /></filter><linearGradient
       y2="300.73987"
       x2="236.61363"
       y1="-161.8512"
       x1="-122.20192"
       spreadMethod="pad"
       gradientTransform="matrix(0.17595114,0,0,0.16675393,-57.890895,62.668437)"
       gradientUnits="userSpaceOnUse"
       id="linearGradient4245"
       xlink:href="#linearGradient4284" /><linearGradient
       y2="66.018341"
       x2="173.94518"
       y1="396.6066"
       x1="447.80933"
       gradientTransform="matrix(0.19870189,0,0,0.19870189,-106.81348,12.782767)"
       gradientUnits="userSpaceOnUse"
       id="linearGradient4247"
       xlink:href="#linearGradient4292" /><linearGradient
       inkscape:collect="always"
       xlink:href="#linearGradient5042"
       id="linearGradient5044"
       x1="9"
       y1="115"
       x2="119"
       y2="115"
       gradientUnits="userSpaceOnUse" /><linearGradient
       inkscape:collect="always"
       xlink:href="#linearGradient4539"
       id="linearGradient4541"
       x1="64"
       y1="115"
       x2="64"
       y2="7.5105515"
       gradientUnits="userSpaceOnUse" /><filter
       inkscape:collect="always"
       style="color-interpolation-filters:sRGB"
       id="filter4"
       x="-0.046277414"
       y="-0.049855785"
       width="1.0925548"
       height="1.0997116"><feGaussianBlur
         inkscape:collect="always"
         stdDeviation="1.2855173"
         id="feGaussianBlur4" /></filter></defs><g
     inkscape:groupmode="layer"
     id="layer2"
     inkscape:label="Layer 1"><path
       id="circle1035"
       style="fill:url(#linearGradient5044);fill-opacity:1"
       d="M 64 5 A 55 55 0 0 0 9 60 L 9 68 A 55 55 0 0 0 64 123 A 55 55 0 0 0 119 68 L 119 60 A 55 55 0 0 0 64 5 z " /><circle
       style="fill:url(#linearGradient4541);fill-opacity:1;stroke-width:1"
       id="path953"
       cx="64"
       cy="60"
       r="55"
       inkscape:export-filename="/home/retro/.icons/skeuowaita/scalable/apps/skeuwaita.png"
       inkscape:export-xdpi="1536"
       inkscape:export-ydpi="1536" /><text
       xml:space="preserve"
       style="font-style:normal;font-variant:normal;font-weight:normal;font-stretch:normal;font-size:40px;line-height:1.25;font-family:'DejaVu Math TeX Gyre';-inkscape-font-specification:'DejaVu Math TeX Gyre';fill:#000000;fill-opacity:1;stroke:none"
       x="57.303368"
       y="70.244858"
       id="text3441"><tspan
         sodipodi:role="line"
         id="tspan3439"
         x="57.303368"
         y="70.244858" /></text><text
       xml:space="preserve"
       style="font-size:40px;line-height:1.25;font-family:Caladea;-inkscape-font-specification:Caladea"
       x="43.168587"
       y="70.812454"
       id="text13903"><tspan
         sodipodi:role="line"
         id="tspan13901"
         x="43.168587"
         y="70.812454" /></text><rect
       style="display:none;fill:none;stroke-width:0.20135"
       id="rect4772"
       y="12.314822"
       x="-107.39003"
       height="103.09106"
       width="103.09106" /><g
       style="display:none"
       id="g4788"
       transform="matrix(0.20134972,0,0,0.20134972,-107.42446,12.274351)"><g
         style="display:inline"
         id="g4790" /></g><g
       style="display:none"
       id="g4806"
       transform="matrix(0.20134972,0,0,0.20134972,-107.42446,12.274351)"><g
         style="display:inline"
         id="g4808"><path
           style="display:none;fill:#050505"
           id="path4810"
           d="m 349.098,256.651 c -0.265,-0.254 37.637,27.605 39.421,25.012 6.362,-9.252 82.046,-93.137 84.784,-116.236 0.242,-2.003 -0.516,-4.096 -0.516,-4.096 0,0 -1.19,-0.144 -6.325,-4.314 -2.692,-2.192 -5.483,-4.581 -5.483,-4.581 -16.054,0.998 -57.885,41.559 -111.062,103.568" /></g></g><ellipse
       style="fill:#e34c4c;fill-opacity:1;stroke-width:0.956048"
       id="circle466"
       cx="64"
       cy="60.186546"
       inkscape:export-filename="/home/retro/.icons/skeuowaita/scalable/apps/skeuwaita.png"
       inkscape:export-xdpi="1536"
       inkscape:export-ydpi="1536"
       ry="52.675995"
       rx="52.489449" /><path
       style="fill:#a81d3f;fill-opacity:1;filter:url(#filter4)"
       d="m 73.341484,98.840632 c -3.271549,-0.37479 -5.70158,-1.08398 -11.162893,-3.25783 -4.59978,-1.83092 -6.608753,-2.46265 -8.746287,-2.75033 -0.811093,-0.10916 -1.072774,-0.1186 -2.492187,-0.0899 -0.872266,0.0176 -1.818415,0.0581 -2.102553,0.09 -1.097353,0.12322 -2.806697,0.79298 -4.524401,1.77277 -1.487573,0.84852 -2.137056,1.27825 -4.120228,2.72616 -0.459289,0.33533 -0.85737,0.5959 -0.884624,0.57906 -0.02725,-0.0168 -0.06592,-0.15403 -0.08593,-0.30486 -0.02001,-0.15083 -0.112691,-0.56559 -0.205961,-0.92168 -0.169582,-0.64745 -0.169582,-0.64745 0.04307,-0.83772 0.475011,-0.42502 2.869988,-2.40703 3.611093,-2.98844 3.925799,-3.07985 7.231301,-5.24785 11.129883,-7.29981 0.638623,-0.33613 1.249965,-0.65843 1.358536,-0.71621 0.186651,-0.0993 0.408781,-0.10515 4.078125,-0.10649 3.880722,-0.001 3.880722,-0.001 4.390488,-0.57017 1.634318,-1.8234 2.017019,-2.58126 2.028145,-4.0163 0.0042,-0.54219 -0.01663,-0.71281 -0.124286,-1.01792 -0.243409,-0.68984 -0.853115,-1.58801 -2.025324,-2.98355 -0.484861,-0.57723 -2.906627,-3.01517 -4.862023,-4.89449 -2.732618,-2.62631 -4.266331,-4.47783 -5.573842,-6.72883 -0.711798,-1.22543 -0.683553,-1.01963 -0.250966,-1.82858 0.40498,-0.75732 1.269645,-2.20516 1.804901,-3.02222 2.394356,-3.65494 5.087881,-6.755 8.50399,-9.78751 0.733703,-0.65132 1.025491,-0.96851 0.939395,-1.0212 -0.05975,-0.0366 -2.452222,-0.49765 -3.866748,-0.74521 -0.638623,-0.11177 -1.42876,-0.25252 -1.75586,-0.31278 -0.327099,-0.0603 -1.435839,-0.24867 -2.463867,-0.41868 -1.028027,-0.17001 -2.404394,-0.41145 -3.058594,-0.53654 -4.25802,-0.81415 -5.744145,-0.99783 -8.071289,-0.99758 -1.349159,1.4e-4 -1.66585,0.0175 -2.36635,0.12978 -1.078077,0.17279 -1.825829,0.39963 -2.646345,0.80282 -0.829214,0.40745 -1.506699,0.91148 -2.145829,1.59641 -0.90835,0.97346 -1.15492,1.7256 -1.04997,3.20286 0.11964,1.68406 0.5779,2.53518 2.283998,4.24202 0.95446,0.95487 1.220612,1.16896 2.61102,2.10031 0.467285,0.31301 0.895942,0.62102 0.952571,0.68446 0.05663,0.0634 0.136475,0.25953 0.177436,0.43574 0.07447,0.32038 0.07447,0.32038 -0.777144,1.05947 -1.401644,1.21645 -4.974251,4.16383 -5.913501,4.87861 -0.19234,0.14637 -0.38594,0.26612 -0.43024,0.26612 -0.12197,0 -1.20918,-1.00277 -2.19369,-2.02331 -0.67225,-0.69685 -0.96222,-1.04585 -1.23773,-1.4897 -0.7324,-1.1799 -1.14527,-2.18738 -1.35217,-3.29952 -0.0752,-0.40445 -0.0973,-0.84221 -0.0975,-1.93844 -2.6e-4,-1.36969 0.005,-1.4364 0.1598,-2.03907 0.35344,-1.37572 1.05993,-3.00443 1.8502,-4.26538 1.53516,-2.4495 4.13356,-5.02327 7.032859,-6.9662 4.418152,-2.96076 9.631719,-4.91053 14.65818,-5.48186 1.77899,-0.20221 3.752543,-0.164 6.34375,0.1228 2.406035,0.26631 6.190925,0.80266 9.770508,1.38456 2.706761,0.44001 3.295536,0.53106 4.953741,0.76605 3.393944,0.48097 5.631982,0.70638 8.186509,0.82451 4.033483,0.18653 6.822446,-0.3546 9.997446,-1.93975 0.87143,-0.43508 2.310105,-1.32759 2.868844,-1.77975 0.178415,-0.14439 0.178415,-0.14439 0.500085,0.83555 0.176918,0.53897 0.332497,1.01414 0.34573,1.05595 0.03414,0.10783 -1.097902,1.24771 -3.491824,3.51602 -1.139111,1.07934 -3.247439,3.09412 -4.685174,4.47728 -2.614064,2.51484 -2.614064,2.51484 -3.819515,2.81357 -2.383431,0.59064 -3.678684,0.75503 -6.282175,0.79733 -1.873668,0.0304 -3.282937,-0.0221 -4.976987,-0.18551 -1.524443,-0.14705 -3.613548,-0.4231 -4.757813,-0.62867 -1.641114,-0.29484 -1.466262,-0.29063 -1.907895,-0.0459 -1.701488,0.94299 -3.156571,2.39909 -3.922264,3.92501 -0.594178,1.18412 -0.864918,2.78057 -0.676978,3.99187 0.195087,1.25737 1.165442,3.00699 2.613405,4.71218 0.70013,0.82451 2.851186,3.03385 4.480934,4.60235 3.106534,2.98979 4.466148,4.57232 5.136552,5.97869 0.550735,1.15534 0.523667,1.92766 -0.113484,3.23798 -0.882375,1.81464 -3.190206,4.28084 -7.52357,8.03984 -1.567655,1.35987 -1.495968,1.19695 -0.692168,1.57311 4.380132,2.04982 9.202189,3.84836 10.761718,4.01393 0.632045,0.0671 1.631195,0.0657 2.411503,-0.003 0.906126,-0.0802 2.257052,-0.5445 4.320125,-1.48471 1.693879,-0.77195 4.519661,-2.30841 5.671657,-3.08384 0.108477,-0.073 0.227709,-0.13275 0.264959,-0.13275 0.03725,0 0.275157,0.42024 0.528679,0.93387 0.46095,0.93388 0.46095,0.93388 0.217528,1.21647 -0.930724,1.08051 -6.646115,5.5863 -11.035544,8.69999 -1.738608,1.23331 -3.396543,2.37282 -3.775324,2.59482 -0.67482,0.3955 -1.165267,0.44247 -2.738348,0.26226 z"
       id="path4" /><path
       style="fill:#404040;fill-opacity:1"
       d="m 73.341484,94.840632 c -3.271549,-0.37479 -5.70158,-1.08398 -11.162893,-3.25783 -4.59978,-1.83092 -6.608753,-2.46265 -8.746287,-2.75033 -0.811093,-0.10916 -1.072774,-0.1186 -2.492187,-0.0899 -0.872266,0.0176 -1.818415,0.0581 -2.102553,0.09 -1.097353,0.12322 -2.806697,0.79298 -4.524401,1.77277 -1.487573,0.84852 -2.137056,1.27825 -4.120228,2.72616 -0.459289,0.33533 -0.85737,0.5959 -0.884624,0.57906 -0.02725,-0.0168 -0.06592,-0.15403 -0.08593,-0.30486 -0.02001,-0.15083 -0.112691,-0.56559 -0.205961,-0.92168 -0.169582,-0.64745 -0.169582,-0.64745 0.04307,-0.83772 0.475011,-0.42502 2.869988,-2.40703 3.611093,-2.98844 3.925799,-3.07985 7.231301,-5.24785 11.129883,-7.29981 0.638623,-0.33613 1.249965,-0.65843 1.358536,-0.71621 0.186651,-0.0993 0.408781,-0.10515 4.078125,-0.10649 3.880722,-0.001 3.880722,-0.001 4.390488,-0.57017 1.634318,-1.8234 2.017019,-2.58126 2.028145,-4.0163 0.0042,-0.54219 -0.01663,-0.71281 -0.124286,-1.01792 -0.243409,-0.68984 -0.853115,-1.58801 -2.025324,-2.98355 -0.484861,-0.57723 -2.906627,-3.01517 -4.862023,-4.89449 -2.732618,-2.62631 -4.266331,-4.47783 -5.573842,-6.72883 -0.711798,-1.22543 -0.683553,-1.01963 -0.250966,-1.82858 0.40498,-0.75732 1.269645,-2.20516 1.804901,-3.02222 2.394356,-3.65494 5.087881,-6.755 8.50399,-9.78751 0.733703,-0.65132 1.025491,-0.96851 0.939395,-1.0212 -0.05975,-0.0366 -2.452222,-0.49765 -3.866748,-0.74521 -0.638623,-0.11177 -1.42876,-0.25252 -1.75586,-0.31278 -0.327099,-0.0603 -1.435839,-0.24867 -2.463867,-0.41868 -1.028027,-0.17001 -2.404394,-0.41145 -3.058594,-0.53654 -4.25802,-0.81415 -5.744145,-0.99783 -8.071289,-0.99758 -1.349159,1.4e-4 -1.66585,0.0175 -2.36635,0.12978 -1.078077,0.17279 -1.825829,0.39963 -2.646345,0.80282 -0.829214,0.40745 -1.506699,0.91148 -2.145829,1.59641 -0.90835,0.97346 -1.15492,1.7256 -1.04997,3.20286 0.11964,1.68406 0.5779,2.53518 2.283998,4.24202 0.95446,0.95487 1.220612,1.16896 2.61102,2.10031 0.467285,0.31301 0.895942,0.62102 0.952571,0.68446 0.05663,0.0634 0.136475,0.25953 0.177436,0.43574 0.07447,0.32038 0.07447,0.32038 -0.777144,1.05947 -1.401644,1.21645 -4.974251,4.16383 -5.913501,4.87861 -0.19234,0.14637 -0.38594,0.26612 -0.43024,0.26612 -0.12197,0 -1.20918,-1.00277 -2.19369,-2.02331 -0.67225,-0.69685 -0.96222,-1.04585 -1.23773,-1.4897 -0.7324,-1.1799 -1.14527,-2.18738 -1.35217,-3.29952 -0.0752,-0.40445 -0.0973,-0.84221 -0.0975,-1.93844 -2.6e-4,-1.36969 0.005,-1.4364 0.1598,-2.03907 0.35344,-1.37572 1.05993,-3.00443 1.8502,-4.26538 1.53516,-2.4495 4.13356,-5.02327 7.032859,-6.9662 4.418152,-2.96076 9.631719,-4.91053 14.65818,-5.48186 1.77899,-0.20221 3.752543,-0.164 6.34375,0.1228 2.406035,0.26631 6.190925,0.80266 9.770508,1.38456 2.706761,0.44001 3.295536,0.53106 4.953741,0.76605 3.393944,0.48097 5.631982,0.70638 8.186509,0.82451 4.033483,0.18653 6.822446,-0.3546 9.997446,-1.93975 0.87143,-0.43508 2.310105,-1.32759 2.868844,-1.77975 0.178415,-0.14439 0.178415,-0.14439 0.500085,0.83555 0.176918,0.53897 0.332497,1.01414 0.34573,1.05595 0.03414,0.10783 -1.097902,1.24771 -3.491824,3.51602 -1.139111,1.07934 -3.247439,3.09412 -4.685174,4.47728 -2.614064,2.51484 -2.614064,2.51484 -3.819515,2.81357 -2.383431,0.59064 -3.678684,0.75503 -6.282175,0.79733 -1.873668,0.0304 -3.282937,-0.0221 -4.976987,-0.18551 -1.524443,-0.14705 -3.613548,-0.4231 -4.757813,-0.62867 -1.641114,-0.29484 -1.466262,-0.29063 -1.907895,-0.0459 -1.701488,0.94299 -3.156571,2.39909 -3.922264,3.92501 -0.594178,1.18412 -0.864918,2.78057 -0.676978,3.99187 0.195087,1.25737 1.165442,3.00699 2.613405,4.71218 0.70013,0.82451 2.851186,3.03385 4.480934,4.60235 3.106534,2.98979 4.466148,4.57232 5.136552,5.97869 0.550735,1.15534 0.523667,1.92766 -0.113484,3.23798 -0.882375,1.81464 -3.190206,4.28084 -7.52357,8.03984 -1.567655,1.35987 -1.495968,1.19695 -0.692168,1.57311 4.380132,2.04982 9.202189,3.84836 10.761718,4.01393 0.632045,0.0671 1.631195,0.0657 2.411503,-0.003 0.906126,-0.0802 2.257052,-0.5445 4.320125,-1.48471 1.693879,-0.77195 4.519661,-2.30841 5.671657,-3.08384 0.108477,-0.073 0.227709,-0.13275 0.264959,-0.13275 0.03725,0 0.275157,0.42024 0.528679,0.93387 0.46095,0.93388 0.46095,0.93388 0.217528,1.21647 -0.930724,1.08051 -6.646115,5.5863 -11.035544,8.69999 -1.738608,1.23331 -3.396543,2.37282 -3.775324,2.59482 -0.67482,0.3955 -1.165267,0.44247 -2.738348,0.26226 z"
       id="path3" /></g></svg>
