<svg width="128" height="128" viewBox="0 0 128 128" fill="none" xmlns="http://www.w3.org/2000/svg">
<path d="M103.5 16.5H24.5C17.3203 16.5 11.5 22.3203 11.5 29.5V108.5C11.5 115.68 17.3203 121.5 24.5 121.5H103.5C110.68 121.5 116.5 115.68 116.5 108.5V29.5C116.5 22.3203 110.68 16.5 103.5 16.5Z" fill="url(#paint0_linear_117_2)"/>
<path d="M103.5 6.5H24.5C17.3203 6.5 11.5 12.3203 11.5 19.5V98.5C11.5 105.68 17.3203 111.5 24.5 111.5H103.5C110.68 111.5 116.5 105.68 116.5 98.5V19.5C116.5 12.3203 110.68 6.5 103.5 6.5Z" fill="#CCCCCC"/>
<path d="M102.162 8.83789H25.8379C19.2105 8.83789 13.8379 14.2105 13.8379 20.8379V97.1619C13.8379 103.789 19.2105 109.162 25.8379 109.162H102.162C108.789 109.162 114.162 103.789 114.162 97.1619V20.8379C114.162 14.2105 108.789 8.83789 102.162 8.83789Z" fill="url(#paint1_radial_117_2)"/>
<path d="M34.25 78.375H34.5V78.125V31.375C34.5 30.3395 35.3395 29.5 36.375 29.5H90.1413L83.2038 36.4375H45.9375C43.4522 36.4375 41.4375 38.4522 41.4375 40.9375V67.5V67.75H41.6875H45.9375H46.1875V67.5V41.1875H78.4538L71.5163 48.125H56.5625C54.664 48.125 53.125 49.664 53.125 51.5625V56.875V57.125H53.375H57.625H57.875V56.875V52.875H66.7663L32.2594 87.3818C30.0939 89.5473 31.6276 93.25 34.6901 93.25H91.625C95.2839 93.25 98.25 90.2839 98.25 86.625V39.875V39.625H98H93.75H93.5V39.875V86.625C93.5 87.6606 92.6606 88.5 91.625 88.5H37.8587L44.7962 81.5625H82.0625C84.5478 81.5625 86.5625 79.5478 86.5625 77.0625V50.5V50.25H86.3125H82.0625H81.8125V50.5V76.8125H49.5462L56.3509 70.0078H71.4375C73.336 70.0078 74.875 68.4688 74.875 66.5703V61.125V60.875H74.625H70.375H70.125V61.125V65.2578H61.1009L95.7406 30.6182C97.9061 28.4527 96.3724 24.75 93.3099 24.75H36.375C32.7161 24.75 29.75 27.7161 29.75 31.375V78.125V78.375H30H34.25Z" fill="#E1E1E1"/>
<path d="M32.2594 87.3818L66.7663 52.875H57.875V56.875V57.125H57.625H53.375H53.125V56.875V51.5625C53.125 49.664 54.664 48.125 56.5625 48.125H71.5163L78.4538 41.1875H46.1875V67.5V67.75H45.9375H41.6875H41.4375V67.5V40.9375C41.4375 38.4522 43.4522 36.4375 45.9375 36.4375H83.2038L90.1413 29.5H36.375C35.3395 29.5 34.5 30.3395 34.5 31.375V78.125V78.375H34.25H30H29.75V78.125V31.375C29.75 27.7161 32.7161 24.75 36.375 24.75H93.3099C96.3724 24.75 97.9061 28.4527 95.7406 30.6182M32.2594 87.3818L32.4362 87.5586M32.2594 87.3818C30.0939 89.5473 31.6276 93.25 34.6901 93.25H91.625C95.2839 93.25 98.25 90.2839 98.25 86.625V39.875V39.625H98H93.75H93.5V39.875V86.625C93.5 87.6606 92.6606 88.5 91.625 88.5H37.8587L44.7962 81.5625H82.0625C84.5478 81.5625 86.5625 79.5478 86.5625 77.0625V50.5V50.25H86.3125H82.0625H81.8125V50.5V76.8125H49.5462L56.3509 70.0078H71.4375C73.336 70.0078 74.875 68.4688 74.875 66.5703V61.125V60.875H74.625H70.375H70.125V61.125V65.2578H61.1009L95.7406 30.6182M95.7406 30.6182L95.5638 30.4414" stroke="#E1E1E1" stroke-width="0.5"/>
<defs>
<linearGradient id="paint0_linear_117_2" x1="11.5" y1="121.5" x2="116.5" y2="121.5" gradientUnits="userSpaceOnUse">
<stop stop-color="#BFBFBF"/>
<stop offset="0.05" stop-color="#C1C1C1"/>
<stop offset="0.1" stop-color="#9C9C9C"/>
<stop offset="0.9" stop-color="#9C9C9C"/>
<stop offset="0.95" stop-color="#C1C1C1"/>
<stop offset="1" stop-color="#A7A7A7"/>
</linearGradient>
<radialGradient id="paint1_radial_117_2" cx="0" cy="0" r="1" gradientUnits="userSpaceOnUse" gradientTransform="translate(65.0693 109.162) scale(96.6554 102.662)">
<stop stop-color="#0861B5"/>
<stop offset="1" stop-color="#0E46AA"/>
</radialGradient>
</defs>
</svg>
